<?xml version="1.0" encoding="utf-8"?>
<!-- Generator: Adobe Illustrator 22.1.0, SVG Export Plug-In . SVG Version: 6.00 Build 0)  -->
<svg version="1.1" id="Calque_2" xmlns="http://www.w3.org/2000/svg" xmlns:xlink="http://www.w3.org/1999/xlink" x="0px" y="0px"
	 viewBox="0 0 1200 1200" style="enable-background:new 0 0 1200 1200;" xml:space="preserve">
<g>
	<path d="M994.476,412.353c-22.414-52.992-54.498-100.581-95.361-141.444s-88.451-72.947-141.443-95.361
		c-54.872-23.209-113.15-34.977-173.219-34.977s-118.347,11.768-173.219,34.977c-52.992,22.414-100.58,54.498-141.443,95.361
		s-72.947,88.452-95.361,141.444c-23.209,54.872-34.977,113.15-34.977,173.219s11.768,118.347,34.977,173.219
		c22.414,52.992,54.498,100.58,95.361,141.443s88.451,72.947,141.443,95.361c54.872,23.209,113.15,34.977,173.219,34.977
		s118.347-11.768,173.219-34.977c52.992-22.414,100.58-54.498,141.443-95.361s72.947-88.451,95.361-141.443
		c23.209-54.872,34.977-113.15,34.977-173.219S1017.685,467.224,994.476,412.353z M584.45,1000.572
		c-228.83-0.001-414.997-186.168-414.998-414.998c-0.001-228.489,186.513-415.003,415.002-415.002
		c228.832,0.001,414.999,186.17,414.998,415.001C999.451,814.061,812.938,1000.573,584.45,1000.572z"/>
	<path d="M751.028,570.572H604.452c-2.761,0-5-2.239-5-5V419.495c0-8.077-6.207-15.027-14.275-15.407
		c-8.614-0.406-15.725,6.458-15.725,14.983v146.5c0,2.761-2.239,5-5,5H417.876c-8.077,0-15.027,6.207-15.407,14.275
		c-0.406,8.614,6.458,15.725,14.983,15.725h147c2.761,0,5,2.239,5,5v146.076c0,8.077,6.207,15.027,14.275,15.407
		c8.614,0.406,15.725-6.458,15.725-14.983v-146.5c0-2.761,2.239-5,5-5h147c8.525,0,15.389-7.111,14.983-15.725
		C766.055,576.778,759.105,570.572,751.028,570.572z"/>
</g>
</svg>
