<?xml version="1.0" encoding="utf-8"?>
<!-- Generator: Adobe Illustrator 22.1.0, SVG Export Plug-In . SVG Version: 6.00 Build 0)  -->
<svg width="24" height="24" viewBox="0 0 24 24" fill="none" xmlns="http://www.w3.org/2000/svg">
<path d="M7.15704 20.6853C5.95446 20.6853 4.82385 20.217 3.97349 19.3666C3.12311 18.5162 2.65479 17.3856 2.65479 16.183C2.65479 14.9805 3.12308 13.8498 3.97346 12.9995L7.04491 9.92805C7.89527 9.07767 9.02587 8.60938 10.2285 8.60938C11.4311 8.60938 12.5617 9.07769 13.412 9.92805C13.5739 10.0899 13.7241 10.2647 13.8587 10.4477C13.9569 10.5812 13.9283 10.769 13.7948 10.8671C13.6614 10.9653 13.4736 10.9367 13.3754 10.8032C13.2587 10.6445 13.1283 10.4928 12.9878 10.3523C12.2507 9.61528 11.2708 9.20937 10.2285 9.20937C9.18615 9.20937 8.20621 9.61528 7.46917 10.3523L4.39775 13.4238C2.87627 14.9452 2.87627 17.4209 4.39775 18.9424C5.91922 20.4639 8.39486 20.4638 9.91636 18.9424L12.9878 15.8709C13.1049 15.7538 13.2949 15.7538 13.412 15.8709C13.5292 15.9881 13.5292 16.178 13.412 16.2952L10.3406 19.3666C9.49026 20.217 8.35962 20.6853 7.15704 20.6853Z" fill="#898989"/>
<path d="M13.3055 14.5369C12.1029 14.5369 10.9723 14.0686 10.122 13.2182C9.7966 12.8928 9.5246 12.523 9.31346 12.1188C9.23674 11.9719 9.2936 11.7907 9.44046 11.714C9.58726 11.6373 9.76852 11.6941 9.84526 11.841C10.0282 12.1911 10.264 12.5117 10.5462 12.7939C12.0677 14.3154 14.5433 14.3154 16.0648 12.7939L19.1362 9.7225C20.6577 8.20102 20.6577 5.7254 19.1362 4.2039C18.3992 3.46686 17.4193 3.06096 16.3769 3.06096C15.3346 3.06096 14.3547 3.46686 13.6176 4.20388L10.5462 7.27534C10.4987 7.32286 10.4518 7.37216 10.407 7.42184C10.2959 7.5448 10.1062 7.55448 9.98326 7.44342C9.8603 7.33238 9.85062 7.14268 9.96166 7.0197C10.0133 6.96252 10.0672 6.90578 10.1219 6.85108L13.1934 3.77962C14.0437 2.92926 15.1743 2.46094 16.3769 2.46094C17.5795 2.46094 18.7101 2.92926 19.5605 3.77962C20.4109 4.62998 20.8792 5.7606 20.8792 6.96318C20.8792 8.16576 20.4109 9.29638 19.5605 10.1467L16.4891 13.2182C15.6387 14.0686 14.5081 14.5369 13.3055 14.5369Z" fill="#898989"/>
</svg>