<?xml version="1.0" encoding="utf-8"?>
<!-- Generator: Adobe Illustrator 22.1.0, SVG Export Plug-In . SVG Version: 6.00 Build 0)  -->
<svg version="1.1" id="Calque_2" xmlns="http://www.w3.org/2000/svg" xmlns:xlink="http://www.w3.org/1999/xlink" x="0px" y="0px"
	 viewBox="0 0 1200 1200" style="enable-background:new 0 0 1200 1200;" xml:space="preserve">
<g>
	<path d="M1006.149,391.81c-22.828-53.971-55.506-102.44-97.127-144.061c-41.62-41.621-90.089-74.299-144.061-97.126
		c-55.883-23.636-115.239-35.621-176.42-35.621s-120.537,11.985-176.42,35.621c-53.971,22.828-102.44,55.506-144.061,97.126
		c-41.62,41.62-74.298,90.089-97.126,144.061c-23.637,55.883-35.621,115.239-35.621,176.42s11.984,120.537,35.621,176.42
		c22.828,53.971,55.506,102.44,97.126,144.061s90.09,74.298,144.061,97.126c55.883,23.637,115.239,35.621,176.42,35.621
		s120.537-11.984,176.42-35.621c53.972-22.828,102.44-55.506,144.061-97.126c41.621-41.62,74.299-90.09,97.127-144.061
		c23.637-55.883,35.621-115.239,35.621-176.42S1029.786,447.693,1006.149,391.81z M588.542,1001.457
		c-238.883,0-433.228-194.345-433.228-433.228s194.345-433.228,433.228-433.228s433.229,194.345,433.229,433.228
		S827.425,1001.457,588.542,1001.457z"/>
	<path d="M829.813,524.445l-9.625-31.886h21.145c5.522,0,10-4.477,10-10s-4.478-10-10-10h-27.181l-17.701-58.644
		c-4.376-14.5-13.116-26.938-25.275-35.968s-26.593-13.804-41.738-13.804H443.959c-31.57,0-59.361,21.288-67.585,51.768
		l-15.281,56.648h-28.899c-5.522,0-10,4.477-10,10s4.478,10,10,10h23.504l-8.619,31.95c-28.117,8.955-48.502,34.829-48.502,65.285
		v122.35v7.354v35.313c0,14.337,11.663,26,26,26h87.508c14.337,0,26-11.663,26-26v-22.667H739v22.667c0,14.337,11.663,26,26,26
		h87.507c14.337,0,26-11.663,26-26v-34.5v-8.167v-122.35C878.507,559.268,858.03,533.343,829.813,524.445z M395.685,421.12
		c5.873-21.771,25.725-36.977,48.274-36.977h285.478c22.213,0,41.448,14.287,47.867,35.552l19.856,65.784
		c0.009,0.031,0.018,0.062,0.028,0.093l10.737,35.572H368.75c-0.016,0-0.032,0.001-0.048,0.001L395.685,421.12z M418.085,754.81
		c0,3.309-2.691,6-6,6h-87.508c-3.309,0-6-2.691-6-6v-22.667h99.508V754.81z M513,710.31v-21.5h147.333v21.5H513z M858.507,754.81
		c0,3.309-2.691,6-6,6H765c-3.309,0-6-2.691-6-6v-22.667h99.507V754.81z M858.507,712.143H739h-58.667v-26.25
		c0-9.42-7.663-17.083-17.083-17.083H510.083c-9.42,0-17.083,7.663-17.083,17.083v26.25h-54.915H318.577v-122.35
		c0-26.826,22.508-48.65,50.173-48.65h439.584c27.665,0,50.173,21.824,50.173,48.65V712.143z"/>
	<path d="M755,614.143c0,25.346,20.62,45.966,45.966,45.966h34.876v-20h-34.876c-14.317,0-25.966-11.648-25.966-25.966
		s11.648-25.966,25.966-25.966h34.876v-20h-34.876C775.62,568.177,755,588.797,755,614.143z"/>
	<path d="M375.842,568.485h-34.578v20h34.578c14.148,0,25.658,11.51,25.658,25.658s-11.51,25.658-25.658,25.658h-34.578v20h34.578
		c25.176,0,45.658-20.482,45.658-45.658S401.018,568.485,375.842,568.485z"/>
</g>
</svg>
