<svg width="30" height="30" viewBox="0 0 30 30" fill="none" xmlns="http://www.w3.org/2000/svg">
<path d="M24.6786 16.9786C24.4715 16.9786 24.3036 17.1465 24.3036 17.3536V19.7821C24.3036 21.6431 22.7896 23.1571 20.9286 23.1571H8.78577C6.92479 23.1571 5.41077 21.6431 5.41077 19.7821V17.3179C5.41077 17.1108 5.24287 16.9429 5.03577 16.9429C4.82867 16.9429 4.66077 17.1108 4.66077 17.3179V19.7821C4.66077 22.0567 6.51124 23.9071 8.78577 23.9071H20.9286C23.2031 23.9071 25.0536 22.0567 25.0536 19.7821V17.3536C25.0536 17.1465 24.8857 16.9786 24.6786 16.9786Z" fill="#333333"/>
<path d="M14.5287 18.8382C14.6076 18.9191 14.7135 18.9621 14.8217 18.9621C14.8335 18.9621 14.8453 18.9614 14.8571 18.9604C14.869 18.9614 14.8808 18.9621 14.8926 18.9621C15.0008 18.9621 15.1066 18.9191 15.1856 18.8381L19.4768 14.4396C19.6214 14.2914 19.6184 14.054 19.4702 13.9093C19.3219 13.7647 19.0845 13.7676 18.9399 13.9159L15.4466 17.4966C15.3684 17.5768 15.2322 17.5214 15.2322 17.4093V5.06676C15.2322 4.86483 15.077 4.69108 14.8753 4.68158C14.6599 4.67143 14.4822 4.84303 14.4822 5.05616V17.4093C14.4822 17.5214 14.346 17.5768 14.2677 17.4966L10.7744 13.9159C10.6298 13.7676 10.3924 13.7647 10.2441 13.9093C10.0959 14.054 10.0929 14.2914 10.2375 14.4396L14.5287 18.8382Z" fill="#333333"/>
</svg>
