<?xml version="1.0" encoding="utf-8"?>
<!-- Generator: Adobe Illustrator 22.1.0, SVG Export Plug-In . SVG Version: 6.00 Build 0)  -->
<svg version="1.1" id="Repères" xmlns="http://www.w3.org/2000/svg" xmlns:xlink="http://www.w3.org/1999/xlink" x="0px" y="0px"
	 viewBox="0 0 1200 1200" style="enable-background:new 0 0 1200 1200;" xml:space="preserve">
<g>
	<path d="M1049.301,562.559l0.018-0.01c-0.083-0.145-0.17-0.288-0.253-0.432c-0.017-0.03-0.031-0.062-0.049-0.092
		c-0.616-1.07-1.25-2.129-1.873-3.195c-0.765-1.308-1.523-2.62-2.298-3.92c-0.683-1.146-1.384-2.281-2.076-3.421
		c-0.782-1.289-1.558-2.583-2.351-3.866c-0.7-1.131-1.416-2.251-2.124-3.376c-0.804-1.278-1.602-2.561-2.417-3.832
		c-0.714-1.114-1.445-2.216-2.167-3.324c-0.828-1.27-1.65-2.545-2.489-3.808c-0.727-1.094-1.47-2.176-2.204-3.264
		c-0.853-1.263-1.7-2.531-2.563-3.787c-0.738-1.073-1.492-2.134-2.238-3.201c-0.879-1.258-1.752-2.521-2.642-3.77
		c-0.744-1.045-1.504-2.079-2.256-3.118c-0.91-1.258-1.814-2.522-2.735-3.772c-0.75-1.018-1.516-2.025-2.273-3.038
		c-0.94-1.257-1.874-2.518-2.824-3.767c-0.761-0.999-1.537-1.986-2.305-2.979c-0.965-1.248-1.924-2.501-2.899-3.74
		c-0.769-0.977-1.553-1.941-2.329-2.912c-0.992-1.242-1.979-2.489-2.982-3.722c-0.778-0.956-1.57-1.899-2.354-2.849
		c-1.018-1.233-2.03-2.471-3.059-3.695c-0.788-0.938-1.591-1.863-2.386-2.795c-1.042-1.222-2.079-2.45-3.133-3.662
		c-0.79-0.91-1.595-1.807-2.391-2.712c-1.075-1.221-2.144-2.446-3.23-3.656c-0.796-0.887-1.606-1.762-2.407-2.644
		c-1.102-1.211-2.198-2.427-3.311-3.628c-0.813-0.877-1.639-1.741-2.458-2.613c-1.118-1.191-2.232-2.387-3.361-3.568
		c-0.824-0.862-1.662-1.71-2.492-2.566c-1.14-1.175-2.274-2.355-3.424-3.52c-0.838-0.848-1.688-1.683-2.532-2.525
		c-1.159-1.157-2.312-2.319-3.481-3.466c-0.858-0.841-1.729-1.669-2.593-2.504c-1.169-1.131-2.333-2.267-3.513-3.387
		c-0.889-0.844-1.791-1.674-2.686-2.512c-1.17-1.096-2.334-2.197-3.514-3.282c-0.92-0.846-1.854-1.678-2.78-2.517
		c-1.17-1.06-2.334-2.127-3.513-3.177c-0.947-0.844-1.908-1.672-2.861-2.509c-1.174-1.03-2.342-2.067-3.525-3.086
		c-0.986-0.85-1.986-1.686-2.979-2.529c-1.163-0.988-2.32-1.982-3.491-2.959c-1.038-0.866-2.09-1.717-3.135-2.576
		c-1.142-0.939-2.278-1.884-3.429-2.813c-1.079-0.871-2.171-1.727-3.257-2.59c-1.13-0.898-2.255-1.804-3.393-2.694
		c-1.143-0.893-2.299-1.769-3.449-2.653c-1.094-0.841-2.182-1.689-3.283-2.522c-1.212-0.916-2.438-1.815-3.658-2.721
		c-1.054-0.783-2.102-1.574-3.162-2.349c-1.269-0.928-2.552-1.837-3.829-2.754c-1.025-0.736-2.044-1.48-3.075-2.208
		c-1.328-0.938-2.67-1.858-4.007-2.784c-0.994-0.688-1.981-1.386-2.98-2.068c-1.387-0.947-2.787-1.874-4.183-2.808
		c-0.963-0.644-1.919-1.297-2.886-1.934c-1.444-0.952-2.902-1.885-4.356-2.823c-0.932-0.601-1.857-1.212-2.792-1.807
		c-1.504-0.957-3.021-1.893-4.535-2.835c-0.899-0.559-1.791-1.128-2.693-1.681c-1.557-0.956-3.128-1.891-4.696-2.831
		c-0.84-0.504-1.673-1.018-2.516-1.517c-0.031-0.018-0.061-0.035-0.092-0.053c-0.056-0.033-0.111-0.067-0.167-0.101
		c-1.575-0.931-3.163-1.838-4.747-2.751c-0.899-0.518-1.791-1.048-2.692-1.561c-1.639-0.933-3.29-1.842-4.939-2.756
		c-0.913-0.506-1.819-1.024-2.735-1.524c-1.64-0.897-3.291-1.77-4.94-2.648c-0.934-0.497-1.862-1.006-2.798-1.498
		c-1.642-0.862-3.295-1.701-4.945-2.545c-0.953-0.488-1.901-0.987-2.857-1.468c-1.61-0.811-3.23-1.599-4.848-2.393
		c-1.007-0.495-2.01-1.001-3.02-1.489c-1.564-0.755-3.139-1.488-4.71-2.227c-1.073-0.505-2.14-1.021-3.216-1.519
		c-1.542-0.713-3.095-1.403-4.644-2.101c-1.113-0.502-2.221-1.015-3.338-1.508c-1.508-0.667-3.025-1.31-4.538-1.963
		c-1.168-0.503-2.332-1.018-3.503-1.513c-1.436-0.607-2.881-1.19-4.322-1.784c-1.259-0.518-2.513-1.048-3.775-1.556
		c-1.398-0.563-2.805-1.104-4.208-1.655c-1.312-0.515-2.619-1.041-3.935-1.546c-1.366-0.524-2.741-1.026-4.111-1.538
		c-1.362-0.51-2.721-1.03-4.088-1.528c-1.305-0.476-2.617-0.929-3.925-1.395c-1.44-0.512-2.876-1.034-4.32-1.533
		c-1.237-0.428-2.48-0.834-3.72-1.252c-1.524-0.514-3.046-1.038-4.575-1.538c-1.162-0.38-2.331-0.74-3.495-1.112
		c-1.613-0.515-3.224-1.039-4.842-1.539c-1.105-0.341-2.216-0.663-3.323-0.997c-1.685-0.508-3.368-1.024-5.059-1.516
		c-1.037-0.301-2.079-0.584-3.118-0.879c-1.767-0.502-3.532-1.01-5.304-1.493c-0.98-0.267-1.966-0.517-2.948-0.778
		c-1.836-0.489-3.671-0.984-5.513-1.454c-0.917-0.234-1.838-0.45-2.756-0.679c-1.913-0.477-3.826-0.958-5.745-1.413
		c-0.834-0.198-1.673-0.38-2.508-0.574c-2.006-0.466-4.012-0.934-6.024-1.376c-0.8-0.176-1.604-0.336-2.404-0.508
		c-2.053-0.441-4.105-0.884-6.164-1.301c-0.761-0.154-1.525-0.293-2.287-0.444c-2.102-0.416-4.203-0.833-6.31-1.223
		c-0.764-0.141-1.531-0.268-2.295-0.406c-2.11-0.381-4.22-0.763-6.335-1.119c-0.747-0.126-1.497-0.236-2.245-0.359
		c-2.134-0.349-4.269-0.699-6.408-1.022c-0.828-0.125-1.658-0.234-2.487-0.355c-2.064-0.302-4.128-0.606-6.197-0.883
		c-0.822-0.11-1.647-0.204-2.47-0.311c-2.078-0.269-4.157-0.54-6.239-0.784c-0.881-0.103-1.765-0.189-2.647-0.288
		c-2.026-0.227-4.052-0.458-6.081-0.662c-1.071-0.107-2.145-0.195-3.217-0.296c-1.845-0.174-3.689-0.355-5.537-0.509
		c-1.151-0.096-2.304-0.171-3.456-0.26c-1.772-0.136-3.543-0.281-5.317-0.4c-1.257-0.084-2.516-0.146-3.774-0.221
		c-1.672-0.1-3.343-0.209-5.017-0.293c-1.377-0.069-2.756-0.115-4.134-0.173c-1.558-0.066-3.115-0.143-4.674-0.195
		c-1.446-0.048-2.894-0.072-4.341-0.109c-1.494-0.038-2.987-0.087-4.482-0.112c-2.942-0.049-5.887-0.074-8.833-0.074
		s-5.89,0.025-8.833,0.074c-1.542,0.026-3.081,0.077-4.621,0.116c-1.401,0.036-2.802,0.059-4.202,0.105
		c-1.628,0.054-3.253,0.134-4.88,0.204c-1.309,0.056-2.619,0.099-3.927,0.164c-1.752,0.088-3.501,0.202-5.251,0.307
		c-1.179,0.071-2.361,0.128-3.539,0.207c-1.865,0.125-3.726,0.276-5.588,0.42c-1.061,0.082-2.124,0.151-3.184,0.24
		c-1.958,0.164-3.912,0.354-5.867,0.54c-0.962,0.091-1.925,0.169-2.886,0.266c-2.153,0.216-4.303,0.459-6.452,0.702
		c-0.758,0.086-1.518,0.159-2.275,0.248c-2.226,0.261-4.448,0.549-6.67,0.838c-0.679,0.088-1.359,0.165-2.038,0.256
		c-2.221,0.298-4.438,0.623-6.654,0.949c-0.676,0.099-1.354,0.188-2.03,0.29c-2.283,0.345-4.56,0.716-6.837,1.091
		c-0.605,0.1-1.212,0.188-1.816,0.29c-2.261,0.38-4.516,0.786-6.771,1.196c-0.619,0.112-1.24,0.214-1.859,0.329
		c-2.275,0.421-4.545,0.869-6.813,1.32c-0.594,0.118-1.189,0.226-1.782,0.346c-2.211,0.448-4.417,0.922-6.622,1.398
		c-0.648,0.14-1.299,0.269-1.946,0.411c-2.175,0.478-4.344,0.983-6.513,1.488c-0.672,0.157-1.347,0.302-2.018,0.462
		c-2.069,0.491-4.131,1.008-6.193,1.524c-0.768,0.192-1.54,0.373-2.308,0.568c-1.988,0.507-3.969,1.039-5.951,1.569
		c-0.835,0.223-1.674,0.435-2.509,0.662c-1.917,0.523-3.827,1.071-5.738,1.616c-0.894,0.255-1.791,0.497-2.683,0.756
		c-1.834,0.533-3.661,1.091-5.489,1.644c-0.964,0.291-1.931,0.571-2.892,0.868c-1.762,0.544-3.516,1.113-5.272,1.675
		c-1.021,0.327-2.046,0.642-3.065,0.975c-1.669,0.546-3.331,1.116-4.994,1.679c-1.099,0.372-2.203,0.732-3.3,1.111
		c-1.586,0.548-3.163,1.12-4.743,1.683c-1.167,0.416-2.338,0.82-3.502,1.244c-1.506,0.549-3.003,1.121-4.503,1.683
		c-1.231,0.462-2.467,0.912-3.695,1.383c-1.467,0.563-2.925,1.148-4.387,1.724c-1.251,0.493-2.506,0.974-3.754,1.476
		c-1.416,0.57-2.822,1.163-4.233,1.745c-1.288,0.532-2.58,1.053-3.864,1.595c-1.332,0.563-2.656,1.147-3.984,1.721
		c-1.352,0.584-2.708,1.158-4.056,1.754c-1.288,0.569-2.566,1.16-3.85,1.74c-1.377,0.622-2.759,1.235-4.131,1.869
		c-1.251,0.578-2.492,1.177-3.739,1.766c-1.396,0.659-2.795,1.308-4.186,1.979c-1.198,0.579-2.388,1.178-3.582,1.766
		c-1.429,0.703-2.861,1.398-4.284,2.114c-1.155,0.582-2.3,1.183-3.451,1.774c-1.451,0.745-2.906,1.48-4.35,2.239
		c-1.14,0.599-2.271,1.217-3.406,1.824c-1.444,0.772-2.892,1.535-4.329,2.321c-1.132,0.619-2.254,1.257-3.382,1.885
		c-1.431,0.796-2.866,1.584-4.29,2.394c-1.141,0.649-2.272,1.318-3.408,1.976c-1.351,0.782-2.708,1.555-4.053,2.349
		c-0.047,0.028-0.094,0.057-0.141,0.085c-0.039,0.023-0.08,0.046-0.119,0.069c-1.093,0.647-2.174,1.312-3.262,1.966
		c-1.308,0.787-2.621,1.566-3.922,2.364c-1.16,0.711-2.307,1.441-3.461,2.161c-1.256,0.784-2.517,1.56-3.766,2.354
		c-1.194,0.76-2.376,1.537-3.564,2.306c-1.195,0.774-2.395,1.539-3.584,2.322c-1.213,0.8-2.414,1.617-3.62,2.427
		c-1.15,0.772-2.307,1.535-3.451,2.316c-1.235,0.843-2.456,1.703-3.683,2.556c-1.101,0.765-2.208,1.522-3.302,2.295
		c-1.277,0.902-2.541,1.823-3.81,2.736c-1.03,0.742-2.067,1.474-3.092,2.223c-1.31,0.957-2.605,1.932-3.906,2.901
		c-0.971,0.724-1.949,1.438-2.915,2.168c-1.359,1.027-2.704,2.073-4.052,3.113c-0.891,0.687-1.79,1.366-2.677,2.059
		c-1.39,1.086-2.766,2.191-4.145,3.291c-0.834,0.665-1.676,1.322-2.506,1.993c-1.413,1.141-2.81,2.3-4.211,3.455
		c-0.781,0.644-1.57,1.28-2.348,1.929c-1.459,1.217-2.902,2.453-4.347,3.685c-0.705,0.602-1.418,1.195-2.12,1.8
		c-1.466,1.264-2.916,2.545-4.368,3.824c-0.671,0.592-1.35,1.175-2.018,1.77c-1.466,1.305-2.917,2.629-4.368,3.95
		c-0.639,0.582-1.286,1.156-1.923,1.742c-1.489,1.369-2.962,2.756-4.435,4.142c-0.585,0.55-1.177,1.093-1.76,1.646
		c-1.505,1.429-2.994,2.875-4.482,4.322c-0.539,0.524-1.085,1.04-1.621,1.566c-1.498,1.468-2.979,2.954-4.459,4.439
		c-0.516,0.518-1.039,1.028-1.553,1.548c-1.495,1.513-2.973,3.043-4.449,4.574c-0.486,0.504-0.979,1.001-1.463,1.507
		c-1.481,1.547-2.944,3.111-4.406,4.677c-0.469,0.502-0.945,0.998-1.412,1.501c-1.46,1.576-2.902,3.167-4.343,4.761
		c-0.457,0.505-0.92,1.003-1.375,1.51c-1.432,1.596-2.846,3.208-4.259,4.821c-0.452,0.516-0.911,1.025-1.361,1.543
		c-1.399,1.61-2.78,3.236-4.16,4.864c-0.451,0.532-0.909,1.058-1.359,1.591c-1.364,1.622-2.71,3.26-4.055,4.898
		c-0.452,0.55-0.911,1.094-1.36,1.646c-1.321,1.623-2.624,3.261-3.926,4.9c-0.461,0.58-0.929,1.153-1.387,1.735
		c-1.278,1.623-2.538,3.26-3.797,4.898c-0.468,0.609-0.944,1.211-1.41,1.822c-1.221,1.603-2.424,3.221-3.627,4.838
		c-0.49,0.659-0.989,1.312-1.477,1.973c-1.155,1.568-2.292,3.15-3.43,4.731c-0.521,0.723-1.05,1.44-1.566,2.165
		c-1.095,1.538-2.172,3.09-3.251,4.64c-0.543,0.78-1.095,1.554-1.634,2.337c-1.027,1.492-2.035,2.998-3.047,4.502
		c-0.576,0.855-1.16,1.704-1.731,2.563c-0.954,1.435-1.889,2.883-2.829,4.328c-0.611,0.94-1.231,1.873-1.836,2.817
		c-0.879,1.37-1.739,2.753-2.606,4.131c-0.649,1.032-1.306,2.059-1.948,3.095c-0.798,1.29-1.579,2.592-2.366,3.889
		c-0.691,1.139-1.391,2.273-2.074,3.418c-0.713,1.195-1.408,2.401-2.112,3.602c-0.687,1.172-1.383,2.338-2.061,3.516
		c-0.019,0.033-0.034,0.067-0.053,0.099c-0.078,0.135-0.158,0.268-0.235,0.403l0.017,0.01c-3.422,6.369-3.333,14.138,0.284,20.424
		c45.376,78.851,110.765,144.999,189.098,191.294c80.704,47.696,173.18,72.907,267.428,72.907s186.724-25.211,267.429-72.907
		c78.332-46.294,143.721-112.442,189.073-191.253C1052.637,576.727,1052.732,568.945,1049.301,562.559z M592.491,807.184
		c-169.876,0-328.344-89.631-416.252-234.664c0.434-0.715,0.866-1.431,1.303-2.144c0.654-1.066,1.309-2.131,1.97-3.191
		c0.755-1.211,1.518-2.415,2.283-3.618c0.672-1.057,1.345-2.113,2.025-3.164c0.771-1.191,1.55-2.376,2.33-3.559
		c0.691-1.047,1.381-2.094,2.079-3.135c0.784-1.169,1.577-2.332,2.371-3.493c0.713-1.044,1.426-2.087,2.147-3.124
		c0.793-1.141,1.594-2.274,2.396-3.407c0.738-1.043,1.476-2.087,2.222-3.123c0.798-1.109,1.606-2.21,2.413-3.311
		c0.768-1.048,1.535-2.097,2.31-3.138c0.797-1.069,1.603-2.13,2.408-3.193c0.802-1.058,1.602-2.117,2.412-3.167
		c0.792-1.027,1.594-2.046,2.394-3.066c0.84-1.071,1.677-2.144,2.526-3.207c0.779-0.977,1.568-1.945,2.354-2.915
		c0.885-1.092,1.767-2.186,2.661-3.269c0.757-0.918,1.524-1.826,2.287-2.738c0.939-1.121,1.876-2.245,2.824-3.357
		c0.727-0.852,1.463-1.694,2.195-2.541c0.999-1.155,1.996-2.313,3.005-3.458c0.685-0.777,1.379-1.545,2.069-2.317
		c1.072-1.2,2.141-2.402,3.224-3.591c0.624-0.685,1.256-1.36,1.884-2.041c1.162-1.261,2.323-2.524,3.497-3.771
		c0.535-0.568,1.078-1.128,1.615-1.694c1.281-1.348,2.562-2.696,3.857-4.029c0.392-0.403,0.79-0.799,1.184-1.201
		c1.451-1.482,2.905-2.962,4.374-4.424c0.167-0.166,0.337-0.329,0.504-0.495c21.915-21.756,45.784-41.321,71.234-58.47
		c0.047-0.032,0.094-0.064,0.141-0.096c2.032-1.368,4.076-2.719,6.128-4.057c0.124-0.081,0.247-0.163,0.371-0.244
		c2-1.301,4.01-2.584,6.029-3.855c0.177-0.112,0.353-0.225,0.531-0.337c1.971-1.238,3.952-2.459,5.94-3.668
		c0.231-0.141,0.461-0.284,0.692-0.424c1.948-1.181,3.906-2.345,5.87-3.498c0.275-0.161,0.548-0.325,0.823-0.486
		c1.931-1.129,3.871-2.241,5.817-3.343c0.314-0.178,0.626-0.358,0.941-0.535c1.917-1.08,3.843-2.144,5.774-3.198
		c0.348-0.19,0.695-0.383,1.044-0.572c1.904-1.034,3.817-2.051,5.735-3.06c0.382-0.201,0.763-0.404,1.146-0.604
		c1.892-0.988,3.792-1.961,5.696-2.924c0.416-0.21,0.831-0.422,1.247-0.632c1.879-0.944,3.766-1.873,5.657-2.792
		c0.448-0.218,0.896-0.437,1.345-0.654c1.868-0.901,3.743-1.788,5.622-2.665c0.479-0.224,0.958-0.448,1.437-0.67
		c1.858-0.86,3.722-1.706,5.591-2.543c0.507-0.227,1.015-0.455,1.523-0.68c1.847-0.819,3.7-1.626,5.558-2.422
		c0.539-0.231,1.077-0.462,1.617-0.691c1.835-0.779,3.674-1.546,5.519-2.302c0.569-0.233,1.138-0.466,1.708-0.698
		c1.823-0.74,3.651-1.468,5.484-2.186c0.597-0.234,1.195-0.467,1.793-0.699c1.812-0.702,3.629-1.393,5.451-2.074
		c0.626-0.234,1.253-0.467,1.881-0.698c1.798-0.663,3.599-1.316,5.405-1.959c0.661-0.235,1.322-0.468,1.984-0.7
		c1.782-0.625,3.568-1.241,5.358-1.846c0.69-0.233,1.382-0.463,2.073-0.694c1.768-0.588,3.539-1.168,5.314-1.736
		c0.722-0.231,1.446-0.459,2.169-0.687c1.753-0.552,3.508-1.096,5.268-1.629c0.752-0.227,1.505-0.451,2.259-0.675
		c1.736-0.516,3.475-1.026,5.218-1.522c0.786-0.224,1.574-0.443,2.361-0.663c1.718-0.481,3.438-0.955,5.163-1.417
		c0.818-0.219,1.638-0.432,2.457-0.647c1.7-0.446,3.401-0.887,5.106-1.314c0.854-0.214,1.709-0.421,2.564-0.63
		c1.677-0.411,3.356-0.818,5.039-1.211c0.89-0.208,1.782-0.408,2.674-0.611c1.655-0.377,3.311-0.751,4.971-1.111
		c0.927-0.201,1.856-0.393,2.784-0.588c1.63-0.343,3.26-0.685,4.895-1.011c0.968-0.193,1.939-0.377,2.908-0.565
		c1.602-0.31,3.205-0.619,4.812-0.913c1.007-0.184,2.016-0.358,3.025-0.536c1.576-0.278,3.151-0.556,4.731-0.819
		c1.048-0.174,2.1-0.337,3.149-0.504c1.545-0.246,3.09-0.494,4.638-0.726c1.092-0.163,2.187-0.314,3.281-0.469
		c1.515-0.216,3.029-0.435,4.547-0.636c1.134-0.151,2.271-0.287,3.407-0.43c1.481-0.186,2.962-0.376,4.446-0.549
		c1.187-0.138,2.378-0.261,3.567-0.39c1.439-0.156,2.877-0.318,4.318-0.462c1.245-0.124,2.494-0.232,3.741-0.346
		c1.391-0.128,2.781-0.262,4.175-0.378c1.309-0.109,2.621-0.2,3.932-0.298c1.337-0.1,2.672-0.208,4.011-0.297
		c1.393-0.093,2.789-0.166,4.184-0.246c1.262-0.073,2.523-0.155,3.787-0.218c1.514-0.075,3.03-0.13,4.546-0.191
		c1.15-0.047,2.298-0.104,3.45-0.142c1.734-0.058,3.472-0.092,5.209-0.131c0.938-0.021,1.875-0.054,2.814-0.07
		c2.679-0.045,5.36-0.068,8.045-0.068c2.686,0,5.369,0.023,8.048,0.068c0.913,0.015,1.824,0.047,2.736,0.068
		c1.762,0.039,3.524,0.075,5.283,0.133c1.149,0.038,2.296,0.095,3.444,0.142c1.518,0.061,3.037,0.116,4.552,0.192
		c1.261,0.063,2.519,0.145,3.779,0.218c1.398,0.081,2.796,0.154,4.192,0.247c1.329,0.088,2.655,0.195,3.982,0.295
		c1.322,0.099,2.646,0.191,3.966,0.3c1.384,0.115,2.765,0.248,4.147,0.375c1.255,0.115,2.512,0.223,3.765,0.348
		c1.433,0.143,2.862,0.303,4.292,0.459c1.199,0.13,2.4,0.254,3.598,0.393c1.471,0.171,2.937,0.359,4.405,0.544
		c1.15,0.144,2.301,0.283,3.449,0.435c1.509,0.201,3.013,0.418,4.519,0.632c1.102,0.157,2.205,0.309,3.305,0.473
		c1.538,0.23,3.073,0.476,4.607,0.721c1.062,0.169,2.125,0.334,3.186,0.51c1.566,0.26,3.128,0.536,4.69,0.812
		c1.022,0.18,2.045,0.356,3.066,0.543c1.597,0.292,3.189,0.6,4.782,0.908c0.979,0.189,1.958,0.375,2.935,0.57
		c1.623,0.324,3.243,0.664,4.862,1.004c0.941,0.198,1.883,0.393,2.823,0.596c1.646,0.357,3.288,0.728,4.929,1.101
		c0.906,0.206,1.813,0.41,2.718,0.621c1.666,0.389,3.328,0.792,4.988,1.199c0.873,0.214,1.747,0.425,2.618,0.644
		c1.689,0.423,3.373,0.86,5.056,1.301c0.835,0.219,1.671,0.436,2.505,0.66c1.71,0.458,3.415,0.929,5.119,1.405
		c0.802,0.224,1.605,0.448,2.406,0.676c1.726,0.492,3.448,0.997,5.168,1.508c0.772,0.229,1.543,0.458,2.314,0.691
		c1.741,0.527,3.478,1.065,5.212,1.612c0.743,0.234,1.485,0.467,2.227,0.705c1.756,0.562,3.508,1.136,5.256,1.717
		c0.712,0.237,1.423,0.474,2.134,0.714c1.77,0.598,3.536,1.207,5.298,1.825c0.682,0.239,1.365,0.479,2.046,0.722
		c1.783,0.634,3.563,1.279,5.338,1.934c0.652,0.241,1.304,0.482,1.956,0.726c1.797,0.672,3.589,1.353,5.377,2.046
		c0.623,0.241,1.245,0.484,1.867,0.728c1.809,0.709,3.613,1.428,5.413,2.158c0.594,0.241,1.187,0.484,1.78,0.727
		c1.821,0.747,3.637,1.504,5.449,2.273c0.564,0.239,1.126,0.481,1.689,0.722c1.832,0.786,3.659,1.581,5.481,2.389
		c0.537,0.238,1.073,0.479,1.61,0.719c1.84,0.824,3.675,1.657,5.504,2.503c0.51,0.236,1.018,0.474,1.527,0.712
		c1.851,0.864,3.698,1.738,5.537,2.625c0.477,0.23,0.952,0.463,1.429,0.695c1.863,0.906,3.722,1.822,5.574,2.751
		c0.446,0.224,0.891,0.451,1.336,0.677c1.874,0.948,3.743,1.905,5.604,2.877c0.417,0.218,0.833,0.44,1.25,0.659
		c1.883,0.99,3.762,1.99,5.632,3.005c0.384,0.208,0.766,0.42,1.15,0.63c1.897,1.036,3.789,2.081,5.672,3.142
		c0.349,0.197,0.696,0.397,1.045,0.594c1.911,1.083,3.817,2.175,5.713,3.284c0.312,0.182,0.621,0.368,0.932,0.55
		c1.928,1.133,3.85,2.275,5.763,3.434c0.269,0.163,0.537,0.33,0.806,0.493c1.95,1.187,3.893,2.384,5.826,3.598
		c0.221,0.139,0.439,0.28,0.66,0.419c1.975,1.245,3.943,2.501,5.901,3.773c0.171,0.111,0.34,0.224,0.51,0.336
		c2.005,1.307,4.002,2.627,5.987,3.964c0.103,0.069,0.205,0.14,0.308,0.21c2.05,1.382,4.091,2.779,6.121,4.192
		c0.019,0.013,0.038,0.027,0.057,0.04c23.042,16.056,44.733,34.12,64.79,54.018c0.213,0.211,0.429,0.419,0.642,0.631
		c1.435,1.429,2.854,2.874,4.272,4.321c0.427,0.436,0.859,0.866,1.285,1.304c1.273,1.309,2.531,2.634,3.79,3.959
		c0.559,0.588,1.123,1.17,1.679,1.761c1.158,1.23,2.302,2.475,3.448,3.718c0.644,0.698,1.292,1.391,1.932,2.094
		c1.073,1.178,2.132,2.369,3.194,3.557c0.699,0.783,1.402,1.561,2.097,2.348c1,1.134,1.987,2.281,2.977,3.425
		c0.743,0.859,1.49,1.714,2.227,2.578c0.939,1.101,1.866,2.213,2.795,3.322c0.772,0.922,1.548,1.841,2.313,2.769
		c0.888,1.077,1.765,2.164,2.645,3.249c0.791,0.977,1.585,1.95,2.369,2.934c0.846,1.061,1.682,2.131,2.52,3.2
		c0.801,1.021,1.603,2.041,2.396,3.069c0.811,1.051,1.612,2.112,2.415,3.171c0.804,1.06,1.608,2.119,2.404,3.187
		c0.78,1.046,1.55,2.101,2.322,3.154c0.801,1.094,1.603,2.187,2.396,3.288c0.753,1.046,1.498,2.1,2.243,3.153
		c0.795,1.123,1.589,2.246,2.375,3.376c0.729,1.049,1.45,2.104,2.171,3.16c0.785,1.148,1.569,2.297,2.344,3.453
		c0.707,1.054,1.406,2.113,2.105,3.173c0.773,1.171,1.543,2.344,2.307,3.523c0.688,1.063,1.369,2.132,2.05,3.202
		c0.755,1.187,1.508,2.375,2.253,3.57c0.674,1.08,1.341,2.165,2.007,3.252c0.429,0.7,0.854,1.403,1.28,2.105
		C920.836,717.553,762.367,807.184,592.491,807.184z"/>
	<path d="M592.491,402.399c-93.796,0-170.104,76.309-170.104,170.104c0,93.796,76.309,170.104,170.104,170.104
		s170.104-76.309,170.104-170.104C762.596,478.708,686.287,402.399,592.491,402.399z M592.491,702.608
		c-71.74,0-130.104-58.364-130.104-130.104c0-71.739,58.364-130.104,130.104-130.104s130.104,58.365,130.104,130.104
		C722.596,644.243,664.231,702.608,592.491,702.608z"/>
</g>
</svg>
