<svg width="80" height="80" viewBox="0 0 80 80" fill="none" xmlns="http://www.w3.org/2000/svg">
<path d="M67.7995 29.5352C66.3068 25.8546 64.1142 22.5526 61.2822 19.7206C58.4508 16.8893 55.1488 14.6966 51.4682 13.2039C47.9135 11.7626 44.1575 11.0312 40.3048 11.0312C36.4522 11.0312 32.6968 11.7626 29.1422 13.2039C25.4608 14.6966 22.1588 16.8893 19.3275 19.7206C16.4955 22.5526 14.3035 25.8546 12.8108 29.5352C11.3689 33.0899 10.6382 36.8452 10.6382 40.6979C10.6382 44.5506 11.3689 48.3066 12.8108 51.8612C14.3035 55.5419 16.4955 58.8439 19.3275 61.6759C22.1588 64.5072 25.4608 66.6999 29.1422 68.1926C32.6968 69.6339 36.4522 70.3646 40.3048 70.3646C44.1575 70.3646 47.9135 69.6339 51.4682 68.1926C55.1488 66.6999 58.4508 64.5072 61.2822 61.6759C64.1142 58.8439 66.3068 55.5419 67.7995 51.8612C69.2408 48.3066 69.9715 44.5506 69.9715 40.6979C69.9715 36.8452 69.2408 33.0899 67.7995 29.5352ZM53.9535 31.2086L38.2422 48.2399C38.0228 48.4772 37.6535 48.4959 37.4122 48.2806L27.4728 39.4319C27.1055 39.1059 27.0735 38.5432 27.3995 38.1766C27.7262 37.8099 28.2882 37.7773 28.6549 38.1039L37.2895 45.7906C37.5308 46.0059 37.9002 45.9873 38.1195 45.7499L52.6635 29.9846C53.0062 29.6132 53.5922 29.5999 53.9508 29.9639C54.2875 30.3046 54.2782 30.8566 53.9535 31.2086Z" fill="#87BB34"/>
</svg>
