<?xml version="1.0" encoding="utf-8"?>
<!-- Generator: Adobe Illustrator 22.1.0, SVG Export Plug-In . SVG Version: 6.00 Build 0)  -->
<svg fill="#898989" version="1.1" id="Calque_2" xmlns="http://www.w3.org/2000/svg" xmlns:xlink="http://www.w3.org/1999/xlink" x="0px" y="0px"
	 viewBox="0 0 1200 1200" style="enable-background:new 0 0 1200 1200;" xml:space="preserve">
<style type="text/css">
	.st0{fill-rule:evenodd;clip-rule:evenodd;fill:none;stroke:#000000;strokeWidth:50;stroke-linecap:round;stroke-miterlimit:10;}
</style>
<g>
	<path d="M587.807,1053.206c-59.019,0-116.28-11.563-170.193-34.366c-52.067-22.022-98.824-53.546-138.974-93.695
		s-71.674-86.907-93.695-138.974c-22.804-53.914-34.366-111.176-34.366-170.194s11.563-116.28,34.366-170.194
		c22.021-52.066,53.546-98.824,93.695-138.974s86.906-71.673,138.974-93.696c53.913-22.803,111.175-34.366,170.193-34.366
		s116.28,11.563,170.194,34.366c52.066,22.022,98.824,53.546,138.974,93.696s71.673,86.907,93.695,138.974
		c22.804,53.914,34.366,111.175,34.366,170.194s-11.563,116.28-34.366,170.194c-22.022,52.066-53.546,98.824-93.695,138.974
		s-86.907,71.673-138.974,93.695C704.087,1041.644,646.825,1053.206,587.807,1053.206z M587.807,208.748
		c-224.547,0-407.229,182.682-407.229,407.229s182.682,407.229,407.229,407.229s407.229-182.683,407.229-407.229
		S812.354,208.748,587.807,208.748z"/>
	<path d="M773,884.143H401c-33.084,0-60-26.916-60-60v-231c0-33.084,26.916-60,60-60h372c33.084,0,60,26.916,60,60v231
		C833,857.227,806.084,884.143,773,884.143z M401,563.143c-16.542,0-30,13.458-30,30v231c0,16.542,13.458,30,30,30h372
		c16.542,0,30-13.458,30-30v-231c0-16.542-13.458-30-30-30H401z"/>
	<path class="st0" d="M732.548,535.643"/>
	<path d="M732.548,506.893c-8.284,0-15-6.716-15-15v-48.714c0-71.833-58.44-130.273-130.273-130.273
		C515.44,312.905,457,371.345,457,443.178v48.714c0,8.284-6.716,15-15,15s-15-6.716-15-15v-48.714
		c0-88.375,71.898-160.273,160.273-160.273c88.376,0,160.274,71.898,160.274,160.273v48.714
		C747.548,500.177,740.832,506.893,732.548,506.893z"/>
</g>
</svg>
