<?xml version="1.0" encoding="utf-8"?>
<!-- Generator: Adobe Illustrator 22.1.0, SVG Export Plug-In . SVG Version: 6.00 Build 0)  -->
<svg version="1.1" id="Calque_2" xmlns="http://www.w3.org/2000/svg" xmlns:xlink="http://www.w3.org/1999/xlink" x="0px" y="0px"
	 viewBox="0 0 1200 1200" style="enable-background:new 0 0 1200 1200;" xml:space="preserve">
<g>
	<path d="M1045.406,604.238l0.017-0.01c-0.087-0.152-0.177-0.302-0.265-0.454c-0.013-0.023-0.024-0.047-0.037-0.069
		c-0.43-0.748-0.872-1.49-1.306-2.235c-0.687-1.181-1.371-2.363-2.068-3.539c-0.515-0.869-1.041-1.732-1.562-2.598
		c-0.67-1.114-1.335-2.231-2.013-3.341c-0.556-0.909-1.123-1.812-1.684-2.718c-0.657-1.061-1.31-2.124-1.975-3.18
		c-0.586-0.93-1.183-1.854-1.775-2.781c-0.655-1.026-1.305-2.055-1.968-3.076c-0.607-0.935-1.225-1.864-1.838-2.796
		c-0.661-1.006-1.318-2.015-1.987-3.016c-0.626-0.937-1.263-1.867-1.895-2.801c-0.669-0.988-1.333-1.979-2.009-2.963
		c-0.639-0.93-1.29-1.854-1.935-2.78c-0.682-0.98-1.359-1.962-2.048-2.938c-0.645-0.913-1.302-1.819-1.953-2.729
		c-0.702-0.98-1.399-1.964-2.108-2.94c-0.653-0.898-1.316-1.789-1.974-2.683c-0.72-0.977-1.434-1.958-2.161-2.931
		c-0.661-0.885-1.333-1.762-1.999-2.643c-0.737-0.974-1.47-1.952-2.214-2.922c-0.658-0.857-1.326-1.706-1.989-2.559
		c-0.765-0.985-1.526-1.973-2.298-2.953c-0.654-0.83-1.318-1.651-1.978-2.477c-0.793-0.993-1.581-1.99-2.381-2.978
		c-0.651-0.803-1.312-1.599-1.967-2.398c-0.821-1.001-1.637-2.006-2.465-3.001c-0.636-0.765-1.282-1.522-1.923-2.283
		c-0.859-1.022-1.715-2.047-2.582-3.062c-0.619-0.724-1.247-1.441-1.87-2.162c-0.899-1.041-1.795-2.086-2.702-3.12
		c-0.614-0.7-1.237-1.392-1.854-2.088c-0.927-1.046-1.851-2.096-2.786-3.135c-0.61-0.678-1.23-1.348-1.844-2.023
		c-0.953-1.047-1.902-2.098-2.863-3.137c-0.599-0.648-1.207-1.289-1.81-1.934c-0.988-1.058-1.972-2.119-2.969-3.17
		c-0.568-0.599-1.145-1.191-1.717-1.788c-1.039-1.085-2.075-2.173-3.123-3.249c-0.573-0.589-1.155-1.17-1.731-1.756
		c-1.054-1.073-2.106-2.148-3.169-3.212c-0.596-0.596-1.2-1.184-1.799-1.778c-1.054-1.045-2.106-2.093-3.168-3.129
		c-0.597-0.582-1.201-1.155-1.801-1.734c-1.074-1.038-2.146-2.078-3.229-3.107c-0.609-0.578-1.225-1.147-1.837-1.723
		c-1.082-1.018-2.161-2.038-3.251-3.047c-0.642-0.594-1.292-1.179-1.937-1.769c-1.07-0.98-2.137-1.964-3.215-2.935
		c-0.654-0.59-1.316-1.169-1.973-1.756c-1.077-0.961-2.152-1.926-3.237-2.878c-0.694-0.609-1.396-1.208-2.093-1.813
		c-1.057-0.918-2.111-1.84-3.175-2.749c-0.771-0.659-1.551-1.307-2.325-1.961c-0.999-0.844-1.994-1.692-2.999-2.529
		c-0.874-0.727-1.758-1.443-2.637-2.164c-0.915-0.751-1.826-1.509-2.746-2.254c-0.958-0.776-1.925-1.539-2.888-2.307
		c-0.851-0.679-1.698-1.365-2.552-2.038c-1.036-0.816-2.082-1.62-3.124-2.428c-0.791-0.614-1.577-1.234-2.372-1.843
		c-1.194-0.915-2.397-1.816-3.598-2.72c-0.651-0.49-1.298-0.988-1.951-1.475c-1.859-1.385-3.726-2.758-5.602-4.117
		c-8.945-6.481-21.451-4.483-27.931,4.46c-6.481,8.944-4.484,21.449,4.46,27.93c0.408,0.296,0.812,0.598,1.219,0.896
		c1.266,0.923,2.531,1.848,3.788,2.784c0.71,0.529,1.414,1.067,2.121,1.6c0.958,0.722,1.918,1.441,2.871,2.17
		c0.767,0.587,1.527,1.182,2.291,1.773c0.886,0.687,1.774,1.371,2.656,2.064c0.787,0.619,1.569,1.245,2.352,1.869
		c0.848,0.675,1.698,1.349,2.542,2.031c0.797,0.644,1.589,1.294,2.383,1.943c0.824,0.674,1.648,1.346,2.468,2.026
		c0.8,0.663,1.595,1.331,2.39,1.999c0.801,0.673,1.603,1.346,2.4,2.024c0.805,0.685,1.606,1.375,2.407,2.065
		c0.781,0.673,1.561,1.347,2.338,2.025c0.803,0.701,1.603,1.406,2.401,2.113c0.765,0.677,1.528,1.355,2.289,2.036
		c0.803,0.719,1.604,1.442,2.402,2.166c0.745,0.676,1.488,1.355,2.229,2.036c0.805,0.74,1.608,1.481,2.408,2.227
		c0.725,0.675,1.448,1.354,2.169,2.034c0.804,0.758,1.607,1.517,2.406,2.281c0.708,0.676,1.412,1.356,2.115,2.037
		c0.804,0.778,1.609,1.556,2.408,2.34c0.682,0.668,1.359,1.341,2.038,2.014c0.812,0.805,1.624,1.61,2.43,2.421
		c0.654,0.657,1.303,1.32,1.953,1.981c0.819,0.833,1.64,1.665,2.453,2.505c0.62,0.64,1.235,1.285,1.851,1.928
		c0.834,0.87,1.67,1.738,2.498,2.613c0.565,0.598,1.124,1.201,1.686,1.802c0.87,0.93,1.743,1.858,2.606,2.795
		c0.437,0.474,0.867,0.953,1.302,1.429c3.538,3.87,7.018,7.794,10.432,11.773c0.179,0.209,0.361,0.415,0.539,0.624
		c0.923,1.08,1.835,2.168,2.749,3.255c0.432,0.514,0.867,1.024,1.297,1.54c0.842,1.011,1.675,2.03,2.51,3.048
		c0.49,0.598,0.984,1.194,1.472,1.794c0.798,0.983,1.588,1.973,2.378,2.961c0.515,0.644,1.032,1.287,1.544,1.934
		c0.767,0.97,1.526,1.945,2.286,2.92c0.524,0.673,1.049,1.344,1.57,2.02c0.741,0.962,1.476,1.929,2.211,2.897
		c0.53,0.699,1.061,1.397,1.587,2.098c0.717,0.955,1.428,1.915,2.138,2.875c0.533,0.721,1.066,1.443,1.595,2.167
		c0.696,0.952,1.386,1.907,2.075,2.863c0.532,0.74,1.064,1.481,1.592,2.224c0.675,0.949,1.347,1.901,2.015,2.855
		c0.532,0.76,1.062,1.521,1.59,2.284c0.653,0.944,1.304,1.89,1.951,2.839c0.533,0.783,1.063,1.568,1.592,2.354
		c0.63,0.936,1.259,1.874,1.882,2.815c0.537,0.81,1.069,1.623,1.601,2.435c0.604,0.924,1.208,1.848,1.806,2.775
		c0.543,0.843,1.081,1.689,1.618,2.535c0.575,0.905,1.151,1.809,1.72,2.717c0.557,0.89,1.108,1.784,1.659,2.678
		c0.537,0.871,1.077,1.74,1.609,2.614c0.106,0.174,0.209,0.349,0.315,0.524c-87.905,145.039-246.375,234.671-416.255,234.671
		c-36.909,0-73.69-4.148-109.323-12.331c-10.762-2.47-21.496,4.253-23.969,15.018c-2.472,10.766,4.252,21.496,15.018,23.968
		c38.563,8.855,78.357,13.346,118.274,13.346c94.248,0,186.724-25.211,267.428-72.906
		c78.333-46.295,143.722-112.443,189.086-191.276C1048.75,618.372,1048.833,610.584,1045.406,604.238z"/>
	<path d="M718.257,625.02c-5.502,66.88-62.456,119.269-129.661,119.269c-1.63,0-3.283-0.03-4.915-0.091
		c-11.035-0.427-20.317,8.21-20.725,19.248c-0.408,11.038,8.21,20.316,19.248,20.725c2.12,0.078,4.271,0.118,6.392,0.118
		c42.973,0,83.997-16.065,115.517-45.237c31.34-29.005,50.521-68.337,54.01-110.752c0.905-11.009-7.284-20.667-18.293-21.572
		C728.821,605.823,719.162,614.011,718.257,625.02z"/>
	<path d="M923.684,276.601c-7.811-7.811-20.475-7.811-28.285,0L791.822,380.177c-0.069-0.029-0.138-0.057-0.207-0.086
		c-0.21-0.088-0.42-0.176-0.63-0.263c-49.439-20.654-101.199-33.437-154.598-38.197c-0.316-0.028-0.633-0.057-0.949-0.085
		c-1.831-0.16-3.664-0.31-5.499-0.451c-0.562-0.043-1.123-0.085-1.685-0.127c-1.651-0.122-3.303-0.237-4.956-0.344
		c-0.763-0.049-1.527-0.095-2.291-0.141c-1.49-0.089-2.981-0.176-4.473-0.253c-0.955-0.05-1.911-0.092-2.866-0.137
		c-1.334-0.062-2.668-0.124-4.004-0.176c-1.157-0.045-2.316-0.08-3.474-0.118c-1.159-0.037-2.316-0.079-3.477-0.109
		c-1.436-0.037-2.874-0.062-4.312-0.088c-0.906-0.016-1.81-0.039-2.717-0.051c-2.36-0.031-4.722-0.048-7.086-0.048c0,0,0,0,0,0
		c0,0,0,0,0,0c-0.595,0-1.188,0.013-1.783,0.015c-2.35,0.008-4.701,0.02-7.049,0.059c-1.76,0.029-3.518,0.085-5.277,0.132
		c-1.182,0.032-2.365,0.049-3.545,0.089c-1.807,0.06-3.611,0.147-5.415,0.226c-1.13,0.049-2.262,0.085-3.392,0.142
		c-1.883,0.094-3.764,0.216-5.645,0.33c-1.048,0.064-2.098,0.114-3.146,0.184c-1.957,0.131-3.91,0.289-5.863,0.441
		c-0.969,0.076-1.941,0.138-2.909,0.219c-2.009,0.168-4.015,0.363-6.021,0.554c-0.91,0.087-1.823,0.16-2.732,0.252
		c-2.062,0.207-4.121,0.441-6.179,0.672c-0.85,0.096-1.702,0.178-2.552,0.278c-2.07,0.243-4.135,0.512-6.202,0.779
		c-0.835,0.108-1.673,0.203-2.508,0.315c-2.068,0.277-4.132,0.581-6.196,0.883c-0.829,0.121-1.66,0.23-2.487,0.355
		c-2.041,0.308-4.077,0.643-6.113,0.975c-0.848,0.138-1.698,0.264-2.545,0.407c-1.997,0.336-3.989,0.698-5.981,1.056
		c-0.882,0.159-1.767,0.305-2.649,0.468c-2.005,0.372-4.005,0.769-6.006,1.164c-0.863,0.17-1.729,0.328-2.591,0.503
		c-1.906,0.386-3.807,0.798-5.708,1.205c-0.954,0.204-1.911,0.396-2.863,0.605c-1.842,0.405-3.678,0.835-5.515,1.26
		c-1.005,0.232-2.014,0.452-3.018,0.69c-1.771,0.42-3.535,0.866-5.301,1.304c-1.066,0.265-2.135,0.517-3.199,0.788
		c-1.707,0.435-3.406,0.895-5.108,1.347c-1.117,0.297-2.237,0.581-3.352,0.885c-1.652,0.451-3.296,0.925-4.943,1.392
		c-1.159,0.328-2.321,0.644-3.478,0.98c-1.583,0.46-3.158,0.944-4.736,1.419c-1.215,0.366-2.433,0.719-3.645,1.093
		c-1.53,0.472-3.052,0.968-4.578,1.455c-1.252,0.399-2.509,0.787-3.758,1.196c-1.451,0.475-2.895,0.972-4.343,1.46
		c-1.318,0.444-2.639,0.876-3.953,1.331c-1.35,0.467-2.693,0.956-4.04,1.434c-1.403,0.498-2.809,0.985-4.207,1.495
		c-1.296,0.472-2.585,0.966-3.878,1.449c-1.439,0.537-2.882,1.065-4.316,1.615c-1.267,0.486-2.525,0.993-3.788,1.488
		c-1.453,0.57-2.909,1.131-4.357,1.714c-1.224,0.493-2.441,1.007-3.662,1.509c-1.478,0.608-2.959,1.207-4.431,1.829
		c-1.163,0.491-2.319,1.003-3.479,1.503c-1.522,0.656-3.048,1.303-4.564,1.974c-1.124,0.497-2.239,1.013-3.36,1.518
		c-1.54,0.694-3.083,1.38-4.617,2.089c-1.127,0.521-2.245,1.062-3.369,1.591c-1.52,0.716-3.043,1.423-4.556,2.154
		c-1.094,0.528-2.18,1.076-3.271,1.612c-1.532,0.753-3.067,1.498-4.592,2.267c-1.08,0.544-2.151,1.107-3.228,1.659
		c-1.525,0.782-3.054,1.556-4.572,2.353c-1.078,0.566-2.147,1.151-3.222,1.725c-1.506,0.804-3.015,1.601-4.514,2.42
		c-1.085,0.593-2.161,1.206-3.242,1.807c-1.477,0.821-2.957,1.634-4.427,2.47c-1.124,0.64-2.239,1.299-3.359,1.947
		c-1.367,0.791-2.739,1.572-4.1,2.376c-0.047,0.028-0.094,0.057-0.141,0.085c-0.039,0.023-0.08,0.046-0.119,0.069
		c-1.075,0.636-2.138,1.29-3.208,1.934c-1.328,0.799-2.661,1.59-3.981,2.4c-1.115,0.684-2.218,1.385-3.328,2.078
		c-1.301,0.811-2.607,1.615-3.9,2.438c-1.118,0.711-2.223,1.439-3.335,2.158c-1.274,0.824-2.553,1.64-3.82,2.475
		c-1.105,0.728-2.197,1.473-3.296,2.209c-1.259,0.844-2.523,1.68-3.775,2.534c-1.104,0.754-2.196,1.524-3.294,2.286
		c-1.233,0.855-2.472,1.703-3.697,2.569c-1.101,0.778-2.19,1.573-3.285,2.359c-1.208,0.867-2.422,1.727-3.622,2.605
		c-1.101,0.804-2.188,1.625-3.282,2.438c-1.181,0.878-2.369,1.748-3.543,2.635c-1.072,0.81-2.131,1.637-3.197,2.455
		c-1.184,0.909-2.373,1.811-3.549,2.73c-1.036,0.81-2.059,1.635-3.089,2.452c-1.19,0.944-2.385,1.881-3.566,2.835
		c-1.014,0.819-2.015,1.654-3.023,2.48c-1.183,0.97-2.371,1.933-3.545,2.913c-0.984,0.821-1.955,1.657-2.932,2.486
		c-1.184,1.003-2.373,1.999-3.548,3.012c-0.932,0.804-1.852,1.622-2.779,2.433c-1.207,1.056-2.42,2.106-3.617,3.172
		c-0.873,0.778-1.734,1.57-2.602,2.353c-1.234,1.114-2.474,2.223-3.697,3.349c-0.823,0.757-1.634,1.527-2.452,2.289
		c-1.256,1.17-2.516,2.335-3.76,3.517c-0.762,0.724-1.513,1.461-2.271,2.19c-1.284,1.234-2.572,2.465-3.844,3.712
		c-0.71,0.696-1.408,1.405-2.115,2.105c-1.306,1.295-2.615,2.588-3.907,3.896c-0.648,0.657-1.286,1.324-1.931,1.984
		c-1.336,1.367-2.674,2.732-3.994,4.113c-0.588,0.615-1.165,1.239-1.749,1.857c-1.364,1.44-2.73,2.88-4.078,4.336
		c-0.536,0.578-1.061,1.166-1.594,1.747c-1.382,1.506-2.765,3.012-4.13,4.535c-0.496,0.553-0.982,1.115-1.476,1.671
		c-1.39,1.563-2.779,3.126-4.15,4.706c-0.453,0.521-0.896,1.051-1.346,1.574c-1.398,1.623-2.795,3.248-4.173,4.888
		c-0.425,0.505-0.84,1.018-1.263,1.525c-1.393,1.67-2.783,3.342-4.155,5.029c-0.394,0.484-0.779,0.975-1.171,1.461
		c-1.388,1.719-2.773,3.44-4.139,5.177c-0.377,0.479-0.745,0.965-1.12,1.445c-1.37,1.753-2.736,3.508-4.083,5.278
		c-0.368,0.483-0.727,0.974-1.094,1.458c-1.341,1.774-2.679,3.551-3.997,5.342c-0.384,0.522-0.759,1.052-1.142,1.575
		c-1.288,1.763-2.573,3.528-3.839,5.307c-0.406,0.571-0.803,1.15-1.207,1.723c-1.228,1.74-2.454,3.482-3.661,5.237
		c-0.443,0.645-0.876,1.297-1.316,1.944c-1.152,1.692-2.305,3.385-3.438,5.091c-0.493,0.743-0.974,1.494-1.464,2.24
		c-1.064,1.62-2.13,3.238-3.176,4.87c-0.558,0.87-1.102,1.75-1.654,2.623c-0.959,1.516-1.922,3.028-2.865,4.554
		c-0.647,1.045-1.277,2.101-1.917,3.151c-0.83,1.364-1.667,2.723-2.485,4.095c-0.749,1.255-1.48,2.522-2.218,3.784
		c-0.64,1.094-1.291,2.181-1.923,3.28c-0.019,0.033-0.035,0.067-0.054,0.1c-0.09,0.156-0.183,0.31-0.273,0.466l0.018,0.01
		c-3.427,6.377-3.337,14.145,0.284,20.423c26.403,45.882,59.504,87.458,98.383,123.572c34.122,31.696,72.092,58.622,113.089,80.22
		l-93.113,93.113c-7.81,7.811-7.81,20.475,0.001,28.285c3.904,3.904,9.023,5.857,14.142,5.857s10.237-1.953,14.143-5.857
		l644.968-644.969C931.493,297.074,931.493,284.411,923.684,276.601z M172.343,614.201c0.396-0.653,0.791-1.307,1.19-1.958
		c0.717-1.171,1.436-2.34,2.162-3.503c0.69-1.106,1.387-2.206,2.086-3.305c0.736-1.158,1.473-2.314,2.217-3.464
		c0.706-1.09,1.419-2.175,2.133-3.258c0.754-1.145,1.51-2.289,2.273-3.427c0.719-1.072,1.446-2.137,2.174-3.202
		c0.777-1.137,1.554-2.274,2.339-3.404c0.727-1.046,1.463-2.085,2.197-3.124c0.804-1.137,1.608-2.275,2.422-3.404
		c0.728-1.011,1.464-2.014,2.199-3.018c0.837-1.143,1.673-2.287,2.519-3.422c0.726-0.974,1.461-1.941,2.195-2.909
		c0.871-1.151,1.742-2.302,2.623-3.444c0.718-0.931,1.445-1.854,2.169-2.778c0.913-1.166,1.826-2.333,2.749-3.49
		c0.702-0.88,1.414-1.752,2.122-2.627c0.959-1.185,1.918-2.372,2.887-3.547c0.681-0.825,1.371-1.642,2.057-2.463
		c1.014-1.212,2.026-2.426,3.051-3.627c0.645-0.756,1.298-1.503,1.947-2.255c1.08-1.251,2.16-2.503,3.252-3.741
		c0.594-0.674,1.196-1.339,1.794-2.009c1.162-1.303,2.324-2.607,3.499-3.897c0.519-0.569,1.045-1.131,1.567-1.698
		c1.267-1.377,2.534-2.754,3.815-4.115c0.41-0.436,0.826-0.864,1.238-1.298c1.404-1.48,2.81-2.958,4.232-4.42
		c0.248-0.255,0.501-0.506,0.75-0.761c25.146-25.743,52.983-48.54,82.92-68.036c0.062-0.04,0.122-0.081,0.184-0.121
		c2.055-1.337,4.122-2.657,6.196-3.963c0.121-0.076,0.242-0.154,0.363-0.231c2.02-1.269,4.051-2.521,6.09-3.761
		c0.181-0.11,0.361-0.222,0.543-0.332c1.995-1.209,4-2.402,6.011-3.582c0.227-0.133,0.453-0.269,0.681-0.402
		c1.974-1.154,3.957-2.291,5.946-3.418c0.271-0.153,0.541-0.309,0.812-0.462c1.956-1.102,3.921-2.188,5.891-3.263
		c0.31-0.169,0.618-0.34,0.928-0.508c1.941-1.053,3.89-2.091,5.845-3.118c0.345-0.181,0.69-0.365,1.035-0.545
		c1.926-1.006,3.859-1.996,5.798-2.977c0.382-0.193,0.764-0.388,1.147-0.581c1.911-0.96,3.829-1.905,5.752-2.839
		c0.416-0.202,0.832-0.406,1.249-0.607c1.898-0.916,3.804-1.817,5.714-2.709c0.448-0.209,0.896-0.42,1.346-0.628
		c1.886-0.873,3.778-1.732,5.675-2.581c0.48-0.215,0.959-0.43,1.44-0.643c1.876-0.833,3.758-1.652,5.645-2.461
		c0.506-0.217,1.013-0.434,1.52-0.65c1.867-0.793,3.739-1.573,5.616-2.343c0.536-0.22,1.072-0.439,1.608-0.657
		c1.854-0.753,3.713-1.493,5.577-2.223c0.567-0.222,1.135-0.444,1.703-0.664c1.841-0.713,3.686-1.415,5.536-2.106
		c0.598-0.223,1.196-0.445,1.795-0.666c1.827-0.674,3.657-1.338,5.493-1.99c0.63-0.224,1.261-0.446,1.892-0.667
		c1.809-0.635,3.621-1.26,5.438-1.873c0.666-0.225,1.334-0.447,2.001-0.669c1.792-0.597,3.588-1.184,5.388-1.76
		c0.696-0.223,1.392-0.442,2.089-0.661c1.776-0.56,3.556-1.111,5.339-1.651c0.731-0.221,1.464-0.438,2.196-0.656
		c1.757-0.522,3.516-1.038,5.279-1.54c0.765-0.218,1.531-0.431,2.297-0.645c1.738-0.486,3.478-0.967,5.223-1.434
		c0.799-0.214,1.6-0.422,2.4-0.632c1.718-0.451,3.437-0.896,5.16-1.328c0.836-0.209,1.673-0.412,2.51-0.617
		c1.695-0.415,3.391-0.826,5.092-1.224c0.872-0.204,1.746-0.4,2.62-0.599c1.672-0.381,3.345-0.759,5.022-1.122
		c0.911-0.197,1.824-0.386,2.736-0.578c1.646-0.347,3.293-0.691,4.944-1.021c0.95-0.19,1.903-0.37,2.855-0.554
		c1.619-0.313,3.239-0.626,4.862-0.923c0.99-0.181,1.983-0.352,2.975-0.527c1.592-0.281,3.184-0.562,4.781-0.828
		c1.031-0.171,2.064-0.331,3.097-0.496c1.563-0.249,3.125-0.5,4.691-0.734c1.077-0.161,2.157-0.309,3.236-0.463
		c1.527-0.218,3.054-0.438,4.584-0.642c1.124-0.149,2.251-0.285,3.377-0.426c1.492-0.188,2.984-0.379,4.48-0.553
		c1.17-0.136,2.343-0.257,3.515-0.384c1.456-0.159,2.911-0.322,4.37-0.467c1.23-0.122,2.463-0.229,3.694-0.342
		c1.405-0.129,2.809-0.265,4.217-0.381c1.301-0.108,2.606-0.198,3.909-0.296c1.345-0.101,2.688-0.209,4.035-0.299
		c1.381-0.092,2.765-0.164,4.148-0.244c1.274-0.074,2.546-0.156,3.822-0.22c1.49-0.074,2.983-0.128,4.475-0.188
		c1.175-0.048,2.348-0.106,3.524-0.145c1.706-0.057,3.416-0.091,5.125-0.129c0.965-0.022,1.928-0.055,2.894-0.071
		c2.663-0.044,5.33-0.067,7.999-0.067c0.015,0,0.03,0,0.044,0c2.185,0,4.367,0.016,6.547,0.044c0.845,0.011,1.688,0.032,2.532,0.047
		c1.322,0.024,2.644,0.046,3.964,0.081c1.073,0.028,2.145,0.066,3.217,0.101c1.071,0.035,2.142,0.068,3.212,0.109
		c1.228,0.048,2.455,0.105,3.682,0.162c0.892,0.041,1.784,0.081,2.674,0.127c1.368,0.071,2.735,0.15,4.102,0.232
		c0.719,0.043,1.438,0.086,2.156,0.132c1.518,0.098,3.035,0.203,4.551,0.315c0.527,0.039,1.054,0.078,1.581,0.119
		c1.688,0.13,3.374,0.267,5.058,0.415c0.304,0.027,0.609,0.054,0.913,0.081c1.893,0.169,3.785,0.347,5.674,0.538
		c0.009,0.001,0.018,0.002,0.028,0.003c42.058,4.26,83.064,13.948,122.555,28.948L692.53,479.47
		c-29.596-22.97-65.692-35.391-103.934-35.391c-93.796,0-170.104,76.309-170.104,170.105c0,38.241,12.421,74.337,35.391,103.934
		l-80.596,80.596C289.793,757.446,220.597,693.906,172.343,614.201z M482.476,689.523c-15.589-21.825-23.985-47.856-23.985-75.339
		c0-71.74,58.364-130.105,130.104-130.105c27.484,0,53.516,8.395,75.34,23.985L482.476,689.523z"/>
</g>
</svg>
