<?xml version="1.0" encoding="utf-8"?>
<!-- Generator: Adobe Illustrator 22.1.0, SVG Export Plug-In . SVG Version: 6.00 Build 0)  -->
<svg version="1.1" id="Calque_2" xmlns="http://www.w3.org/2000/svg" xmlns:xlink="http://www.w3.org/1999/xlink" x="0px" y="0px"
	 viewBox="0 0 1200 1200" style="enable-background:new 0 0 1200 1200;" xml:space="preserve">
<style type="text/css">
	.st0{fill:none;stroke:#000000;strokeWidth:50;stroke-linecap:round;stroke-miterlimit:10;}
</style>
<path class="st0" d="M416,373.571"/>
<path class="st0" d="M416,373.571"/>
<g>
	<path d="M993.158,460.205c-13.808,0-25,11.193-25,25v398.711c0,37.62-30.606,68.227-68.227,68.227H276.385
		c-37.62,0-68.227-30.606-68.227-68.227V466.798c0-37.62,30.606-68.227,68.227-68.227h131.044c6.249,0,11.958-2.298,16.341-6.089
		c6.063-4.341,10.129-11.336,10.442-19.363c2.276-58.465,49.933-104.262,108.494-104.262h179.887c38.871,0,75.02,20.991,94.34,54.78
		c6.854,11.986,22.126,16.146,34.112,9.293c11.986-6.854,16.147-22.125,9.294-34.112c-28.202-49.322-80.982-79.962-137.746-79.962
		H542.706c-41.265,0-80.347,15.769-110.048,44.4c-24.102,23.235-39.974,52.941-45.912,85.314H276.385
		c-65.19,0-118.227,53.036-118.227,118.227v417.118c0,65.19,53.036,118.227,118.227,118.227h623.547
		c65.19,0,118.227-53.036,118.227-118.227V485.205C1018.158,471.398,1006.966,460.205,993.158,460.205z"/>
	<path d="M377.127,671.237c0,116.363,94.668,211.031,211.031,211.031S799.189,787.6,799.189,671.237
		s-94.668-211.031-211.031-211.031S377.127,554.873,377.127,671.237z M749.189,671.237c0,88.793-72.238,161.031-161.031,161.031
		S427.127,760.03,427.127,671.237s72.238-161.031,161.031-161.031S749.189,582.444,749.189,671.237z"/>
	<path d="M1079.957,229.719h-60.616V167.43c0-12.542-10.168-22.71-22.71-22.71s-22.71,10.167-22.71,22.71v62.289h-61.641
		c-12.543,0-22.71,10.167-22.71,22.71c0,12.542,10.167,22.71,22.71,22.71h61.641v62.289c0,12.542,10.168,22.71,22.71,22.71
		s22.71-10.167,22.71-22.71v-62.289h60.616c12.542,0,22.71-10.167,22.71-22.71C1102.667,239.886,1092.499,229.719,1079.957,229.719z
		"/>
</g>
</svg>
